<?xml version="1.0" encoding="UTF-8" standalone="no"?>
<!DOCTYPE svg PUBLIC "-//W3C//DTD SVG 1.1//EN" "http://www.w3.org/Graphics/SVG/1.1/DTD/svg11.dtd">
<svg width="100%" height="100%" viewBox="0 0 1000 1000" version="1.1" xmlns="http://www.w3.org/2000/svg" xmlns:xlink="http://www.w3.org/1999/xlink" xml:space="preserve" xmlns:serif="http://www.serif.com/" style="fill-rule:evenodd;clip-rule:evenodd;stroke-linejoin:round;stroke-miterlimit:1.41421;">
    <g transform="matrix(1.08334,0,0,1.08334,-43.9363,-41.5895)">
        <g transform="matrix(0.943615,0,0,0.943615,28.7005,28.3399)">
            <rect x="12.564" y="10.651" width="978.229" height="978.229" style="fill:rgb(255,249,238);"/>
            <path d="M990.793,10.651L12.564,10.651L12.564,988.88L990.793,988.88L990.793,10.651ZM912.535,88.909L912.535,910.621C912.535,910.621 90.823,910.621 90.823,910.621C90.823,910.621 90.823,88.909 90.823,88.909L912.535,88.909Z" style="fill:rgb(221,85,53);"/>
        </g>
        <g transform="matrix(1.18575,0,0,1.07014,-229.446,-33.77)">
            <path d="M354.209,711.575C370.849,714.135 397.089,716.695 423.969,716.695C483.489,716.695 525.729,702.615 555.169,675.095C592.929,641.815 615.329,579.735 615.329,492.695C615.329,408.855 596.129,351.895 559.009,318.615C531.489,293.015 493.729,280.215 439.329,280.215C406.049,280.215 375.329,283.415 354.209,288.535L354.209,711.575ZM438.049,349.335C443.169,347.415 448.929,347.415 454.689,347.415C505.249,347.415 528.289,401.175 528.289,489.495C528.289,608.535 493.089,648.215 452.769,648.215C448.289,648.215 442.529,648.215 438.049,646.935L438.049,349.335Z" style="fill:rgb(221,85,53);fill-rule:nonzero;stroke:rgb(221,85,53);stroke-width:0.82px;"/>
            <path d="M644.676,836.375L728.516,836.375L728.516,687.895L729.796,687.895C738.756,702.615 756.036,718.615 781.636,718.615C834.756,718.615 883.396,668.055 883.396,556.695C883.396,469.655 855.236,394.775 786.756,394.775C757.316,394.775 733.636,410.775 720.836,436.375L719.556,436.375L715.076,400.535L642.116,400.535C643.396,430.615 644.676,461.975 644.676,499.735L644.676,836.375ZM728.516,515.095C728.516,507.415 729.156,499.095 732.356,492.695C735.556,477.975 747.716,465.815 760.516,465.815C785.476,465.815 800.196,497.815 800.196,557.335C800.196,606.615 789.316,650.135 759.876,650.135C750.276,650.135 739.396,645.015 732.996,625.815C729.796,619.415 728.516,609.815 728.516,599.575L728.516,515.095Z" style="fill:rgb(221,85,53);fill-rule:nonzero;stroke:rgb(221,85,53);stroke-width:0.82px;"/>
        </g>
    </g>
</svg>
